<mxfile host="65bd71144e">
    <diagram id="3kYtaeQCg_6lEzjZgvCM" name="Step1-Purpose">
        <mxGraphModel dx="963" dy="720" grid="1" gridSize="10" guides="1" tooltips="1" connect="1" arrows="1" fold="1" page="1" pageScale="1" pageWidth="827" pageHeight="1169" math="0" shadow="0">
            <root>
                <mxCell id="0"/>
                <mxCell id="1" parent="0"/>
                <mxCell id="Ck84tVVIUjt7WFXUJjc3-1" value="ME" style="shape=umlActor;verticalLabelPosition=bottom;verticalAlign=top;html=1;outlineConnect=0;rounded=0;sketch=1;fillColor=#ffe6cc;strokeColor=#d79b00;" vertex="1" parent="1">
                    <mxGeometry x="360" y="520" width="50" height="90" as="geometry"/>
                </mxCell>
                <mxCell id="Ck84tVVIUjt7WFXUJjc3-3" value="books" style="ellipse;shape=cloud;whiteSpace=wrap;html=1;rounded=0;sketch=1;fillColor=#dae8fc;strokeColor=#6c8ebf;" vertex="1" parent="1">
                    <mxGeometry x="80" y="400" width="160" height="100" as="geometry"/>
                </mxCell>
                <mxCell id="Ck84tVVIUjt7WFXUJjc3-4" value="library" style="ellipse;shape=cloud;whiteSpace=wrap;html=1;rounded=0;sketch=1;fillColor=#dae8fc;strokeColor=#6c8ebf;" vertex="1" parent="1">
                    <mxGeometry x="500" y="400" width="160" height="110" as="geometry"/>
                </mxCell>
                <mxCell id="Ck84tVVIUjt7WFXUJjc3-5" value="author" style="ellipse;shape=cloud;whiteSpace=wrap;html=1;rounded=0;sketch=1;fillColor=#dae8fc;strokeColor=#6c8ebf;" vertex="1" parent="1">
                    <mxGeometry x="290" y="260" width="160" height="110" as="geometry"/>
                </mxCell>
            </root>
        </mxGraphModel>
    </diagram>
    <diagram id="UEDsar7LUs0QwypRQedo" name="Step2- ER Model">
        <mxGraphModel dx="963" dy="720" grid="1" gridSize="10" guides="1" tooltips="1" connect="1" arrows="1" fold="1" page="1" pageScale="1" pageWidth="827" pageHeight="1169" math="0" shadow="0">
            <root>
                <mxCell id="8DPhk8csgzcqTlVEx3lV-0"/>
                <mxCell id="8DPhk8csgzcqTlVEx3lV-1" parent="8DPhk8csgzcqTlVEx3lV-0"/>
                <mxCell id="azwPjBJilwIPw6VnQQUb-14" style="edgeStyle=none;html=1;exitX=0.5;exitY=0;exitDx=0;exitDy=0;startArrow=none;startFill=0;strokeColor=none;rounded=1;" edge="1" parent="8DPhk8csgzcqTlVEx3lV-1" source="BAgJbTc9YdYMHHLDjq3B-0" target="azwPjBJilwIPw6VnQQUb-11">
                    <mxGeometry relative="1" as="geometry"/>
                </mxCell>
                <mxCell id="azwPjBJilwIPw6VnQQUb-19" style="edgeStyle=none;rounded=1;html=1;exitX=0.5;exitY=0;exitDx=0;exitDy=0;entryX=0.5;entryY=1;entryDx=0;entryDy=0;startArrow=none;startFill=0;strokeColor=default;endArrow=none;endFill=0;" edge="1" parent="8DPhk8csgzcqTlVEx3lV-1" source="BAgJbTc9YdYMHHLDjq3B-0" target="azwPjBJilwIPw6VnQQUb-11">
                    <mxGeometry relative="1" as="geometry">
                        <Array as="points">
                            <mxPoint x="375" y="280"/>
                        </Array>
                    </mxGeometry>
                </mxCell>
                <mxCell id="azwPjBJilwIPw6VnQQUb-21" value="" style="edgeStyle=none;rounded=1;html=1;startArrow=none;startFill=0;endArrow=none;endFill=0;strokeColor=default;" edge="1" parent="8DPhk8csgzcqTlVEx3lV-1" source="BAgJbTc9YdYMHHLDjq3B-0" target="azwPjBJilwIPw6VnQQUb-9">
                    <mxGeometry relative="1" as="geometry"/>
                </mxCell>
                <mxCell id="azwPjBJilwIPw6VnQQUb-23" style="edgeStyle=none;rounded=1;html=1;exitX=0.5;exitY=1;exitDx=0;exitDy=0;entryX=0.5;entryY=0;entryDx=0;entryDy=0;startArrow=none;startFill=0;endArrow=none;endFill=0;strokeColor=default;" edge="1" parent="8DPhk8csgzcqTlVEx3lV-1" source="BAgJbTc9YdYMHHLDjq3B-0" target="azwPjBJilwIPw6VnQQUb-10">
                    <mxGeometry relative="1" as="geometry"/>
                </mxCell>
                <mxCell id="MysfsGkUqjXkQC2ENLQj-7" value="" style="edgeStyle=none;rounded=1;html=1;startArrow=none;startFill=0;endArrow=none;endFill=0;strokeColor=default;" edge="1" parent="8DPhk8csgzcqTlVEx3lV-1" source="BAgJbTc9YdYMHHLDjq3B-0" target="azwPjBJilwIPw6VnQQUb-11">
                    <mxGeometry relative="1" as="geometry"/>
                </mxCell>
                <mxCell id="BAgJbTc9YdYMHHLDjq3B-0" value="book" style="rounded=1;arcSize=10;whiteSpace=wrap;html=1;align=center;fillColor=#dae8fc;strokeColor=#6c8ebf;" vertex="1" parent="8DPhk8csgzcqTlVEx3lV-1">
                    <mxGeometry x="320" y="310" width="110" height="50" as="geometry"/>
                </mxCell>
                <mxCell id="azwPjBJilwIPw6VnQQUb-49" style="edgeStyle=none;rounded=1;html=1;entryX=0.927;entryY=0.792;entryDx=0;entryDy=0;entryPerimeter=0;startArrow=none;startFill=0;endArrow=none;endFill=0;strokeColor=default;" edge="1" parent="8DPhk8csgzcqTlVEx3lV-1" source="azwPjBJilwIPw6VnQQUb-6" target="azwPjBJilwIPw6VnQQUb-46">
                    <mxGeometry relative="1" as="geometry"/>
                </mxCell>
                <mxCell id="azwPjBJilwIPw6VnQQUb-50" style="edgeStyle=none;rounded=1;html=1;startArrow=none;startFill=0;endArrow=none;endFill=0;strokeColor=default;" edge="1" parent="8DPhk8csgzcqTlVEx3lV-1" source="azwPjBJilwIPw6VnQQUb-6" target="azwPjBJilwIPw6VnQQUb-47">
                    <mxGeometry relative="1" as="geometry"/>
                </mxCell>
                <mxCell id="azwPjBJilwIPw6VnQQUb-51" style="edgeStyle=none;rounded=1;html=1;startArrow=none;startFill=0;endArrow=none;endFill=0;strokeColor=default;" edge="1" parent="8DPhk8csgzcqTlVEx3lV-1" source="azwPjBJilwIPw6VnQQUb-6" target="azwPjBJilwIPw6VnQQUb-48">
                    <mxGeometry relative="1" as="geometry"/>
                </mxCell>
                <mxCell id="azwPjBJilwIPw6VnQQUb-53" style="edgeStyle=none;rounded=1;html=1;startArrow=none;startFill=0;endArrow=none;endFill=0;strokeColor=default;" edge="1" parent="8DPhk8csgzcqTlVEx3lV-1" source="azwPjBJilwIPw6VnQQUb-6" target="azwPjBJilwIPw6VnQQUb-52">
                    <mxGeometry relative="1" as="geometry"/>
                </mxCell>
                <mxCell id="azwPjBJilwIPw6VnQQUb-55" value="" style="edgeStyle=none;rounded=1;html=1;startArrow=none;startFill=0;endArrow=none;endFill=0;strokeColor=default;" edge="1" parent="8DPhk8csgzcqTlVEx3lV-1" source="azwPjBJilwIPw6VnQQUb-6" target="azwPjBJilwIPw6VnQQUb-54">
                    <mxGeometry relative="1" as="geometry"/>
                </mxCell>
                <mxCell id="U8nflpAAQo3FRNwvxvsQ-1" style="edgeStyle=none;rounded=1;html=1;startArrow=none;startFill=0;endArrow=none;endFill=0;strokeColor=default;" edge="1" parent="8DPhk8csgzcqTlVEx3lV-1" source="azwPjBJilwIPw6VnQQUb-6" target="U8nflpAAQo3FRNwvxvsQ-0">
                    <mxGeometry relative="1" as="geometry"/>
                </mxCell>
                <mxCell id="azwPjBJilwIPw6VnQQUb-6" value="details" style="rounded=1;arcSize=10;whiteSpace=wrap;html=1;align=center;fillColor=#dae8fc;strokeColor=#6c8ebf;" vertex="1" parent="8DPhk8csgzcqTlVEx3lV-1">
                    <mxGeometry x="320" y="535" width="110" height="45" as="geometry"/>
                </mxCell>
                <mxCell id="azwPjBJilwIPw6VnQQUb-22" style="edgeStyle=none;rounded=1;html=1;exitX=0;exitY=0.5;exitDx=0;exitDy=0;startArrow=none;startFill=0;endArrow=none;endFill=0;strokeColor=default;" edge="1" parent="8DPhk8csgzcqTlVEx3lV-1" source="azwPjBJilwIPw6VnQQUb-7" target="azwPjBJilwIPw6VnQQUb-9">
                    <mxGeometry relative="1" as="geometry"/>
                </mxCell>
                <mxCell id="azwPjBJilwIPw6VnQQUb-7" value="author" style="rounded=1;arcSize=10;whiteSpace=wrap;html=1;align=center;fillColor=#dae8fc;strokeColor=#6c8ebf;" vertex="1" parent="8DPhk8csgzcqTlVEx3lV-1">
                    <mxGeometry x="680" y="310" width="110" height="50" as="geometry"/>
                </mxCell>
                <mxCell id="azwPjBJilwIPw6VnQQUb-8" value="my_information" style="rounded=1;arcSize=10;whiteSpace=wrap;html=1;align=center;fillColor=#dae8fc;strokeColor=#6c8ebf;" vertex="1" parent="8DPhk8csgzcqTlVEx3lV-1">
                    <mxGeometry x="320" y="70" width="110" height="50" as="geometry"/>
                </mxCell>
                <mxCell id="azwPjBJilwIPw6VnQQUb-9" value="has" style="shape=rhombus;perimeter=rhombusPerimeter;whiteSpace=wrap;html=1;align=center;fillColor=#fff2cc;strokeColor=#d6b656;" vertex="1" parent="8DPhk8csgzcqTlVEx3lV-1">
                    <mxGeometry x="520" y="315" width="70" height="40" as="geometry"/>
                </mxCell>
                <mxCell id="azwPjBJilwIPw6VnQQUb-24" style="edgeStyle=none;rounded=1;html=1;exitX=0.5;exitY=1;exitDx=0;exitDy=0;entryX=0.5;entryY=0;entryDx=0;entryDy=0;startArrow=none;startFill=0;endArrow=none;endFill=0;strokeColor=default;" edge="1" parent="8DPhk8csgzcqTlVEx3lV-1" source="azwPjBJilwIPw6VnQQUb-10" target="azwPjBJilwIPw6VnQQUb-6">
                    <mxGeometry relative="1" as="geometry"/>
                </mxCell>
                <mxCell id="azwPjBJilwIPw6VnQQUb-10" value="has" style="shape=rhombus;perimeter=rhombusPerimeter;whiteSpace=wrap;html=1;align=center;fillColor=#fff2cc;strokeColor=#d6b656;" vertex="1" parent="8DPhk8csgzcqTlVEx3lV-1">
                    <mxGeometry x="340" y="450" width="70" height="40" as="geometry"/>
                </mxCell>
                <mxCell id="azwPjBJilwIPw6VnQQUb-20" style="edgeStyle=none;rounded=1;html=1;exitX=0.5;exitY=0;exitDx=0;exitDy=0;startArrow=none;startFill=0;endArrow=none;endFill=0;strokeColor=default;" edge="1" parent="8DPhk8csgzcqTlVEx3lV-1" source="azwPjBJilwIPw6VnQQUb-11" target="azwPjBJilwIPw6VnQQUb-8">
                    <mxGeometry relative="1" as="geometry"/>
                </mxCell>
                <mxCell id="azwPjBJilwIPw6VnQQUb-11" value="reflects" style="shape=rhombus;perimeter=rhombusPerimeter;whiteSpace=wrap;html=1;align=center;fillColor=#fff2cc;strokeColor=#d6b656;" vertex="1" parent="8DPhk8csgzcqTlVEx3lV-1">
                    <mxGeometry x="340" y="190" width="70" height="40" as="geometry"/>
                </mxCell>
                <mxCell id="azwPjBJilwIPw6VnQQUb-26" value="" style="edgeStyle=none;rounded=1;html=1;startArrow=none;startFill=0;endArrow=none;endFill=0;strokeColor=default;" edge="1" parent="8DPhk8csgzcqTlVEx3lV-1" source="azwPjBJilwIPw6VnQQUb-25" target="BAgJbTc9YdYMHHLDjq3B-0">
                    <mxGeometry relative="1" as="geometry"/>
                </mxCell>
                <mxCell id="azwPjBJilwIPw6VnQQUb-25" value="book_id" style="ellipse;whiteSpace=wrap;html=1;align=center;" vertex="1" parent="8DPhk8csgzcqTlVEx3lV-1">
                    <mxGeometry x="110" y="290" width="70" height="25" as="geometry"/>
                </mxCell>
                <mxCell id="azwPjBJilwIPw6VnQQUb-29" value="" style="edgeStyle=none;rounded=1;html=1;startArrow=none;startFill=0;endArrow=none;endFill=0;strokeColor=default;" edge="1" parent="8DPhk8csgzcqTlVEx3lV-1" source="azwPjBJilwIPw6VnQQUb-28" target="BAgJbTc9YdYMHHLDjq3B-0">
                    <mxGeometry relative="1" as="geometry"/>
                </mxCell>
                <mxCell id="azwPjBJilwIPw6VnQQUb-28" value="title" style="ellipse;whiteSpace=wrap;html=1;align=center;" vertex="1" parent="8DPhk8csgzcqTlVEx3lV-1">
                    <mxGeometry x="160" y="322.5" width="90" height="27.5" as="geometry"/>
                </mxCell>
                <mxCell id="azwPjBJilwIPw6VnQQUb-33" style="edgeStyle=none;rounded=1;html=1;exitX=1;exitY=1;exitDx=0;exitDy=0;entryX=0;entryY=0;entryDx=0;entryDy=0;startArrow=none;startFill=0;endArrow=none;endFill=0;strokeColor=default;" edge="1" parent="8DPhk8csgzcqTlVEx3lV-1" source="azwPjBJilwIPw6VnQQUb-31" target="BAgJbTc9YdYMHHLDjq3B-0">
                    <mxGeometry relative="1" as="geometry"/>
                </mxCell>
                <mxCell id="azwPjBJilwIPw6VnQQUb-31" value="fk_author_name" style="ellipse;whiteSpace=wrap;html=1;align=center;fillColor=#e1d5e7;strokeColor=#9673a6;" vertex="1" parent="8DPhk8csgzcqTlVEx3lV-1">
                    <mxGeometry x="190" y="280" width="120" height="30" as="geometry"/>
                </mxCell>
                <mxCell id="azwPjBJilwIPw6VnQQUb-34" style="edgeStyle=none;rounded=1;html=1;exitX=1;exitY=0.5;exitDx=0;exitDy=0;startArrow=none;startFill=0;endArrow=none;endFill=0;strokeColor=default;" edge="1" parent="8DPhk8csgzcqTlVEx3lV-1" source="azwPjBJilwIPw6VnQQUb-32" target="BAgJbTc9YdYMHHLDjq3B-0">
                    <mxGeometry relative="1" as="geometry"/>
                </mxCell>
                <mxCell id="azwPjBJilwIPw6VnQQUb-32" value="fk_language_id" style="ellipse;whiteSpace=wrap;html=1;align=center;fillColor=#e1d5e7;strokeColor=#9673a6;" vertex="1" parent="8DPhk8csgzcqTlVEx3lV-1">
                    <mxGeometry x="160" y="370" width="110" height="32.5" as="geometry"/>
                </mxCell>
                <mxCell id="azwPjBJilwIPw6VnQQUb-42" style="edgeStyle=none;rounded=1;html=1;entryX=0;entryY=0.5;entryDx=0;entryDy=0;startArrow=none;startFill=0;endArrow=none;endFill=0;strokeColor=default;" edge="1" parent="8DPhk8csgzcqTlVEx3lV-1" source="azwPjBJilwIPw6VnQQUb-39" target="azwPjBJilwIPw6VnQQUb-8">
                    <mxGeometry relative="1" as="geometry"/>
                </mxCell>
                <mxCell id="azwPjBJilwIPw6VnQQUb-39" value="read_status" style="ellipse;whiteSpace=wrap;html=1;align=center;" vertex="1" parent="8DPhk8csgzcqTlVEx3lV-1">
                    <mxGeometry x="215" y="40" width="90" height="30" as="geometry"/>
                </mxCell>
                <mxCell id="azwPjBJilwIPw6VnQQUb-43" style="edgeStyle=none;rounded=1;html=1;entryX=0.5;entryY=0;entryDx=0;entryDy=0;startArrow=none;startFill=0;endArrow=none;endFill=0;strokeColor=default;" edge="1" parent="8DPhk8csgzcqTlVEx3lV-1" source="azwPjBJilwIPw6VnQQUb-40" target="azwPjBJilwIPw6VnQQUb-8">
                    <mxGeometry relative="1" as="geometry"/>
                </mxCell>
                <mxCell id="azwPjBJilwIPw6VnQQUb-40" value="personal_rating" style="ellipse;whiteSpace=wrap;html=1;align=center;" vertex="1" parent="8DPhk8csgzcqTlVEx3lV-1">
                    <mxGeometry x="315" y="10" width="120" height="30" as="geometry"/>
                </mxCell>
                <mxCell id="azwPjBJilwIPw6VnQQUb-45" value="" style="edgeStyle=none;rounded=1;html=1;startArrow=none;startFill=0;endArrow=none;endFill=0;strokeColor=default;" edge="1" parent="8DPhk8csgzcqTlVEx3lV-1" source="azwPjBJilwIPw6VnQQUb-44" target="azwPjBJilwIPw6VnQQUb-7">
                    <mxGeometry relative="1" as="geometry"/>
                </mxCell>
                <mxCell id="azwPjBJilwIPw6VnQQUb-44" value="author_name" style="ellipse;whiteSpace=wrap;html=1;align=center;" vertex="1" parent="8DPhk8csgzcqTlVEx3lV-1">
                    <mxGeometry x="675" y="390" width="120" height="30" as="geometry"/>
                </mxCell>
                <mxCell id="azwPjBJilwIPw6VnQQUb-46" value="language" style="ellipse;whiteSpace=wrap;html=1;align=center;" vertex="1" parent="8DPhk8csgzcqTlVEx3lV-1">
                    <mxGeometry x="190" y="511.25" width="110" height="32.5" as="geometry"/>
                </mxCell>
                <mxCell id="azwPjBJilwIPw6VnQQUb-47" value="purchase_date" style="ellipse;whiteSpace=wrap;html=1;align=center;" vertex="1" parent="8DPhk8csgzcqTlVEx3lV-1">
                    <mxGeometry x="180" y="568" width="110" height="32.5" as="geometry"/>
                </mxCell>
                <mxCell id="azwPjBJilwIPw6VnQQUb-48" value="description" style="ellipse;whiteSpace=wrap;html=1;align=center;" vertex="1" parent="8DPhk8csgzcqTlVEx3lV-1">
                    <mxGeometry x="460" y="511.25" width="110" height="32.5" as="geometry"/>
                </mxCell>
                <mxCell id="azwPjBJilwIPw6VnQQUb-52" value="page_number" style="ellipse;whiteSpace=wrap;html=1;align=center;" vertex="1" parent="8DPhk8csgzcqTlVEx3lV-1">
                    <mxGeometry x="450" y="568" width="110" height="32.5" as="geometry"/>
                </mxCell>
                <mxCell id="azwPjBJilwIPw6VnQQUb-54" value="cover_type" style="ellipse;whiteSpace=wrap;html=1;align=center;" vertex="1" parent="8DPhk8csgzcqTlVEx3lV-1">
                    <mxGeometry x="359" y="620" width="110" height="32.5" as="geometry"/>
                </mxCell>
                <mxCell id="U8nflpAAQo3FRNwvxvsQ-0" value="genre" style="ellipse;whiteSpace=wrap;html=1;align=center;" vertex="1" parent="8DPhk8csgzcqTlVEx3lV-1">
                    <mxGeometry x="215" y="620" width="110" height="32.5" as="geometry"/>
                </mxCell>
                <mxCell id="ldynoQ_tiMI72NC6sFte-1" style="edgeStyle=none;rounded=1;html=1;startArrow=none;startFill=0;endArrow=none;endFill=0;strokeColor=default;" edge="1" parent="8DPhk8csgzcqTlVEx3lV-1" source="ldynoQ_tiMI72NC6sFte-0" target="azwPjBJilwIPw6VnQQUb-6">
                    <mxGeometry relative="1" as="geometry"/>
                </mxCell>
                <mxCell id="ldynoQ_tiMI72NC6sFte-0" value="fk_book_id" style="ellipse;whiteSpace=wrap;html=1;align=center;fillColor=#e1d5e7;strokeColor=#9673a6;" vertex="1" parent="8DPhk8csgzcqTlVEx3lV-1">
                    <mxGeometry x="60" y="535.5" width="110" height="32.5" as="geometry"/>
                </mxCell>
                <mxCell id="ldynoQ_tiMI72NC6sFte-3" style="edgeStyle=none;rounded=1;html=1;entryX=0.5;entryY=0;entryDx=0;entryDy=0;startArrow=none;startFill=0;endArrow=none;endFill=0;strokeColor=default;" edge="1" parent="8DPhk8csgzcqTlVEx3lV-1" source="ldynoQ_tiMI72NC6sFte-2" target="azwPjBJilwIPw6VnQQUb-7">
                    <mxGeometry relative="1" as="geometry"/>
                </mxCell>
                <mxCell id="ldynoQ_tiMI72NC6sFte-2" value="fk_book_id" style="ellipse;whiteSpace=wrap;html=1;align=center;fillColor=#e1d5e7;strokeColor=#9673a6;" vertex="1" parent="8DPhk8csgzcqTlVEx3lV-1">
                    <mxGeometry x="680" y="220" width="110" height="32.5" as="geometry"/>
                </mxCell>
                <mxCell id="ldynoQ_tiMI72NC6sFte-5" value="" style="edgeStyle=none;rounded=1;html=1;startArrow=none;startFill=0;endArrow=none;endFill=0;strokeColor=default;" edge="1" parent="8DPhk8csgzcqTlVEx3lV-1" source="ldynoQ_tiMI72NC6sFte-4" target="azwPjBJilwIPw6VnQQUb-8">
                    <mxGeometry relative="1" as="geometry"/>
                </mxCell>
                <mxCell id="ldynoQ_tiMI72NC6sFte-4" value="fk_book_id" style="ellipse;whiteSpace=wrap;html=1;align=center;fillColor=#e1d5e7;strokeColor=#9673a6;" vertex="1" parent="8DPhk8csgzcqTlVEx3lV-1">
                    <mxGeometry x="490" y="78.75" width="110" height="32.5" as="geometry"/>
                </mxCell>
                <mxCell id="MysfsGkUqjXkQC2ENLQj-5" style="rounded=1;html=1;entryX=0;entryY=0.5;entryDx=0;entryDy=0;startArrow=none;startFill=0;endArrow=none;endFill=0;strokeColor=default;exitX=1;exitY=0.5;exitDx=0;exitDy=0;" edge="1" parent="8DPhk8csgzcqTlVEx3lV-1" source="MysfsGkUqjXkQC2ENLQj-0" target="MysfsGkUqjXkQC2ENLQj-4">
                    <mxGeometry relative="1" as="geometry"/>
                </mxCell>
                <mxCell id="MysfsGkUqjXkQC2ENLQj-0" value="library" style="rounded=1;arcSize=10;whiteSpace=wrap;html=1;align=center;fillColor=#d5e8d4;strokeColor=#82b366;" vertex="1" parent="8DPhk8csgzcqTlVEx3lV-1">
                    <mxGeometry x="20" y="150" width="110" height="50" as="geometry"/>
                </mxCell>
                <mxCell id="MysfsGkUqjXkQC2ENLQj-2" value="" style="edgeStyle=orthogonalEdgeStyle;rounded=1;html=1;startArrow=none;startFill=0;endArrow=none;endFill=0;strokeColor=default;" edge="1" parent="8DPhk8csgzcqTlVEx3lV-1" source="MysfsGkUqjXkQC2ENLQj-1" target="MysfsGkUqjXkQC2ENLQj-0">
                    <mxGeometry relative="1" as="geometry"/>
                </mxCell>
                <mxCell id="MysfsGkUqjXkQC2ENLQj-1" value="books_number" style="ellipse;whiteSpace=wrap;html=1;align=center;" vertex="1" parent="8DPhk8csgzcqTlVEx3lV-1">
                    <mxGeometry x="25" y="230" width="100" height="28.75" as="geometry"/>
                </mxCell>
                <mxCell id="MysfsGkUqjXkQC2ENLQj-8" style="edgeStyle=none;rounded=1;html=1;entryX=0.5;entryY=0;entryDx=0;entryDy=0;startArrow=none;startFill=0;endArrow=none;endFill=0;strokeColor=default;exitX=1;exitY=0.5;exitDx=0;exitDy=0;" edge="1" parent="8DPhk8csgzcqTlVEx3lV-1" source="MysfsGkUqjXkQC2ENLQj-4" target="BAgJbTc9YdYMHHLDjq3B-0">
                    <mxGeometry relative="1" as="geometry"/>
                </mxCell>
                <mxCell id="MysfsGkUqjXkQC2ENLQj-4" value="contains" style="shape=rhombus;perimeter=rhombusPerimeter;whiteSpace=wrap;html=1;align=center;fillColor=#fff2cc;strokeColor=#d6b656;" vertex="1" parent="8DPhk8csgzcqTlVEx3lV-1">
                    <mxGeometry x="190" y="190" width="70" height="40" as="geometry"/>
                </mxCell>
            </root>
        </mxGraphModel>
    </diagram>
    <diagram id="qsKTIu8a0EFT9uXS0_SQ" name="Step3- UML ">
        <mxGraphModel dx="963" dy="720" grid="1" gridSize="10" guides="1" tooltips="1" connect="1" arrows="1" fold="1" page="1" pageScale="1" pageWidth="827" pageHeight="1169" math="0" shadow="0">
            <root>
                <mxCell id="uL0VI-zcSZ-gOK0qdTFE-0"/>
                <mxCell id="uL0VI-zcSZ-gOK0qdTFE-1" parent="uL0VI-zcSZ-gOK0qdTFE-0"/>
                <mxCell id="m_C47cZq4-kJ2EyNdQTC-0" value="Book" style="swimlane;fontStyle=0;childLayout=stackLayout;horizontal=1;startSize=26;fillColor=#dae8fc;horizontalStack=0;resizeParent=1;resizeParentMax=0;resizeLast=0;collapsible=1;marginBottom=0;strokeColor=#6c8ebf;" vertex="1" parent="uL0VI-zcSZ-gOK0qdTFE-1">
                    <mxGeometry x="339" y="200" width="150" height="130" as="geometry">
                        <mxRectangle x="60" y="200" width="60" height="26" as="alternateBounds"/>
                    </mxGeometry>
                </mxCell>
                <mxCell id="m_C47cZq4-kJ2EyNdQTC-1" value="+ book_id: integer" style="text;strokeColor=none;fillColor=none;align=left;verticalAlign=top;spacingLeft=4;spacingRight=4;overflow=hidden;rotatable=0;points=[[0,0.5],[1,0.5]];portConstraint=eastwest;" vertex="1" parent="m_C47cZq4-kJ2EyNdQTC-0">
                    <mxGeometry y="26" width="150" height="26" as="geometry"/>
                </mxCell>
                <mxCell id="m_C47cZq4-kJ2EyNdQTC-2" value="+ title: string" style="text;strokeColor=none;fillColor=none;align=left;verticalAlign=top;spacingLeft=4;spacingRight=4;overflow=hidden;rotatable=0;points=[[0,0.5],[1,0.5]];portConstraint=eastwest;" vertex="1" parent="m_C47cZq4-kJ2EyNdQTC-0">
                    <mxGeometry y="52" width="150" height="26" as="geometry"/>
                </mxCell>
                <mxCell id="D-sxVb8xfBG1ianlo57m-4" value="+ fk_author_name: string" style="text;strokeColor=#9673a6;fillColor=#e1d5e7;align=left;verticalAlign=top;spacingLeft=4;spacingRight=4;overflow=hidden;rotatable=0;points=[[0,0.5],[1,0.5]];portConstraint=eastwest;" vertex="1" parent="m_C47cZq4-kJ2EyNdQTC-0">
                    <mxGeometry y="78" width="150" height="26" as="geometry"/>
                </mxCell>
                <mxCell id="m_C47cZq4-kJ2EyNdQTC-3" value="+ fk_language_id: string" style="text;strokeColor=#9673a6;fillColor=#e1d5e7;align=left;verticalAlign=top;spacingLeft=4;spacingRight=4;overflow=hidden;rotatable=0;points=[[0,0.5],[1,0.5]];portConstraint=eastwest;" vertex="1" parent="m_C47cZq4-kJ2EyNdQTC-0">
                    <mxGeometry y="104" width="150" height="26" as="geometry"/>
                </mxCell>
                <mxCell id="1qwwl78eV2HNCBXaWKCz-0" value="Details" style="swimlane;fontStyle=0;childLayout=stackLayout;horizontal=1;startSize=26;fillColor=#dae8fc;horizontalStack=0;resizeParent=1;resizeParentMax=0;resizeLast=0;collapsible=1;marginBottom=0;strokeColor=#6c8ebf;" vertex="1" parent="uL0VI-zcSZ-gOK0qdTFE-1">
                    <mxGeometry x="600" y="320" width="150" height="208" as="geometry">
                        <mxRectangle x="60" y="200" width="60" height="26" as="alternateBounds"/>
                    </mxGeometry>
                </mxCell>
                <mxCell id="1qwwl78eV2HNCBXaWKCz-1" value="+ fk_book_id: integer" style="text;strokeColor=#9673a6;fillColor=#e1d5e7;align=left;verticalAlign=top;spacingLeft=4;spacingRight=4;overflow=hidden;rotatable=0;points=[[0,0.5],[1,0.5]];portConstraint=eastwest;" vertex="1" parent="1qwwl78eV2HNCBXaWKCz-0">
                    <mxGeometry y="26" width="150" height="26" as="geometry"/>
                </mxCell>
                <mxCell id="Kh7Tw8r7mhmo8grevnBK-0" value="+ descritption: string" style="text;strokeColor=none;fillColor=none;align=left;verticalAlign=top;spacingLeft=4;spacingRight=4;overflow=hidden;rotatable=0;points=[[0,0.5],[1,0.5]];portConstraint=eastwest;" vertex="1" parent="1qwwl78eV2HNCBXaWKCz-0">
                    <mxGeometry y="52" width="150" height="26" as="geometry"/>
                </mxCell>
                <mxCell id="1qwwl78eV2HNCBXaWKCz-2" value="+ purchase_date: date" style="text;strokeColor=none;fillColor=none;align=left;verticalAlign=top;spacingLeft=4;spacingRight=4;overflow=hidden;rotatable=0;points=[[0,0.5],[1,0.5]];portConstraint=eastwest;" vertex="1" parent="1qwwl78eV2HNCBXaWKCz-0">
                    <mxGeometry y="78" width="150" height="26" as="geometry"/>
                </mxCell>
                <mxCell id="1qwwl78eV2HNCBXaWKCz-3" value="+ genre: string" style="text;strokeColor=none;fillColor=none;align=left;verticalAlign=top;spacingLeft=4;spacingRight=4;overflow=hidden;rotatable=0;points=[[0,0.5],[1,0.5]];portConstraint=eastwest;" vertex="1" parent="1qwwl78eV2HNCBXaWKCz-0">
                    <mxGeometry y="104" width="150" height="26" as="geometry"/>
                </mxCell>
                <mxCell id="1qwwl78eV2HNCBXaWKCz-4" value="+ language_id: string" style="text;strokeColor=none;fillColor=none;align=left;verticalAlign=top;spacingLeft=4;spacingRight=4;overflow=hidden;rotatable=0;points=[[0,0.5],[1,0.5]];portConstraint=eastwest;" vertex="1" parent="1qwwl78eV2HNCBXaWKCz-0">
                    <mxGeometry y="130" width="150" height="26" as="geometry"/>
                </mxCell>
                <mxCell id="X3WvpEgpeftLMdTqYLeH-0" value="+ cover_type: string" style="text;strokeColor=none;fillColor=none;align=left;verticalAlign=top;spacingLeft=4;spacingRight=4;overflow=hidden;rotatable=0;points=[[0,0.5],[1,0.5]];portConstraint=eastwest;" vertex="1" parent="1qwwl78eV2HNCBXaWKCz-0">
                    <mxGeometry y="156" width="150" height="26" as="geometry"/>
                </mxCell>
                <mxCell id="qtqWJxEsLKYz54zh1z8d-0" value="+ page_number: string" style="text;strokeColor=none;fillColor=none;align=left;verticalAlign=top;spacingLeft=4;spacingRight=4;overflow=hidden;rotatable=0;points=[[0,0.5],[1,0.5]];portConstraint=eastwest;" vertex="1" parent="1qwwl78eV2HNCBXaWKCz-0">
                    <mxGeometry y="182" width="150" height="26" as="geometry"/>
                </mxCell>
                <mxCell id="LWtyXT6pKw2MUqxjMVNJ-0" value="Author" style="swimlane;fontStyle=0;childLayout=stackLayout;horizontal=1;startSize=26;fillColor=#dae8fc;horizontalStack=0;resizeParent=1;resizeParentMax=0;resizeLast=0;collapsible=1;marginBottom=0;strokeColor=#6c8ebf;" vertex="1" parent="uL0VI-zcSZ-gOK0qdTFE-1">
                    <mxGeometry x="90" y="360" width="150" height="78" as="geometry">
                        <mxRectangle x="60" y="200" width="60" height="26" as="alternateBounds"/>
                    </mxGeometry>
                </mxCell>
                <mxCell id="LWtyXT6pKw2MUqxjMVNJ-2" value="+ fk_book_id: integer" style="text;strokeColor=#9673a6;fillColor=#e1d5e7;align=left;verticalAlign=top;spacingLeft=4;spacingRight=4;overflow=hidden;rotatable=0;points=[[0,0.5],[1,0.5]];portConstraint=eastwest;" vertex="1" parent="LWtyXT6pKw2MUqxjMVNJ-0">
                    <mxGeometry y="26" width="150" height="26" as="geometry"/>
                </mxCell>
                <mxCell id="LWtyXT6pKw2MUqxjMVNJ-3" value="+ author_name: string" style="text;align=left;verticalAlign=top;spacingLeft=4;spacingRight=4;overflow=hidden;rotatable=0;points=[[0,0.5],[1,0.5]];portConstraint=eastwest;" vertex="1" parent="LWtyXT6pKw2MUqxjMVNJ-0">
                    <mxGeometry y="52" width="150" height="26" as="geometry"/>
                </mxCell>
                <mxCell id="n0LiozYfdaEYjqZiV4nv-0" value="My Information" style="swimlane;fontStyle=0;childLayout=stackLayout;horizontal=1;startSize=26;fillColor=#dae8fc;horizontalStack=0;resizeParent=1;resizeParentMax=0;resizeLast=0;collapsible=1;marginBottom=0;strokeColor=#6c8ebf;" vertex="1" parent="uL0VI-zcSZ-gOK0qdTFE-1">
                    <mxGeometry x="580" y="60" width="150" height="102" as="geometry">
                        <mxRectangle x="60" y="200" width="60" height="26" as="alternateBounds"/>
                    </mxGeometry>
                </mxCell>
                <mxCell id="n0LiozYfdaEYjqZiV4nv-1" value="+ fk_book_id: integer" style="text;strokeColor=#9673a6;fillColor=#e1d5e7;align=left;verticalAlign=top;spacingLeft=4;spacingRight=4;overflow=hidden;rotatable=0;points=[[0,0.5],[1,0.5]];portConstraint=eastwest;" vertex="1" parent="n0LiozYfdaEYjqZiV4nv-0">
                    <mxGeometry y="26" width="150" height="26" as="geometry"/>
                </mxCell>
                <mxCell id="n0LiozYfdaEYjqZiV4nv-2" value="+ red_status: boolean" style="text;strokeColor=none;fillColor=none;align=left;verticalAlign=top;spacingLeft=4;spacingRight=4;overflow=hidden;rotatable=0;points=[[0,0.5],[1,0.5]];portConstraint=eastwest;" vertex="1" parent="n0LiozYfdaEYjqZiV4nv-0">
                    <mxGeometry y="52" width="150" height="26" as="geometry"/>
                </mxCell>
                <mxCell id="n0LiozYfdaEYjqZiV4nv-4" value="+ personal_rating: number" style="text;align=left;verticalAlign=top;spacingLeft=4;spacingRight=4;overflow=hidden;rotatable=0;points=[[0,0.5],[1,0.5]];portConstraint=eastwest;" vertex="1" parent="n0LiozYfdaEYjqZiV4nv-0">
                    <mxGeometry y="78" width="150" height="24" as="geometry"/>
                </mxCell>
                <mxCell id="O1z_SJtBllQJYyqGqHQy-1" style="edgeStyle=orthogonalEdgeStyle;rounded=1;html=1;entryX=-0.027;entryY=-0.077;entryDx=0;entryDy=0;entryPerimeter=0;startArrow=none;startFill=0;endArrow=none;endFill=0;strokeColor=default;exitX=1;exitY=0.5;exitDx=0;exitDy=0;" edge="1" parent="uL0VI-zcSZ-gOK0qdTFE-1" source="m_C47cZq4-kJ2EyNdQTC-1" target="n0LiozYfdaEYjqZiV4nv-2">
                    <mxGeometry relative="1" as="geometry">
                        <mxPoint x="490" y="320" as="sourcePoint"/>
                        <Array as="points">
                            <mxPoint x="489" y="230"/>
                            <mxPoint x="520" y="230"/>
                            <mxPoint x="520" y="110"/>
                        </Array>
                    </mxGeometry>
                </mxCell>
                <mxCell id="O1z_SJtBllQJYyqGqHQy-2" style="edgeStyle=orthogonalEdgeStyle;rounded=1;html=1;entryX=0;entryY=0.5;entryDx=0;entryDy=0;startArrow=none;startFill=0;endArrow=none;endFill=0;strokeColor=default;exitX=1;exitY=0.5;exitDx=0;exitDy=0;" edge="1" parent="uL0VI-zcSZ-gOK0qdTFE-1" source="m_C47cZq4-kJ2EyNdQTC-1" target="1qwwl78eV2HNCBXaWKCz-1">
                    <mxGeometry relative="1" as="geometry">
                        <Array as="points">
                            <mxPoint x="489" y="240"/>
                            <mxPoint x="560" y="240"/>
                            <mxPoint x="560" y="359"/>
                        </Array>
                    </mxGeometry>
                </mxCell>
                <mxCell id="O1z_SJtBllQJYyqGqHQy-3" style="edgeStyle=orthogonalEdgeStyle;rounded=1;html=1;startArrow=none;startFill=0;endArrow=none;endFill=0;strokeColor=default;entryX=1;entryY=0.5;entryDx=0;entryDy=0;exitX=0;exitY=0.5;exitDx=0;exitDy=0;" edge="1" parent="uL0VI-zcSZ-gOK0qdTFE-1" source="m_C47cZq4-kJ2EyNdQTC-1" target="LWtyXT6pKw2MUqxjMVNJ-0">
                    <mxGeometry relative="1" as="geometry">
                        <mxPoint x="310" y="240" as="targetPoint"/>
                        <Array as="points">
                            <mxPoint x="280" y="239"/>
                            <mxPoint x="280" y="399"/>
                        </Array>
                    </mxGeometry>
                </mxCell>
                <mxCell id="O1z_SJtBllQJYyqGqHQy-5" style="edgeStyle=orthogonalEdgeStyle;rounded=1;html=1;entryX=0;entryY=0.75;entryDx=0;entryDy=0;startArrow=none;startFill=0;endArrow=none;endFill=0;strokeColor=default;exitX=1;exitY=0.5;exitDx=0;exitDy=0;" edge="1" parent="uL0VI-zcSZ-gOK0qdTFE-1" source="LWtyXT6pKw2MUqxjMVNJ-3" target="m_C47cZq4-kJ2EyNdQTC-0">
                    <mxGeometry relative="1" as="geometry">
                        <Array as="points">
                            <mxPoint x="310" y="425"/>
                            <mxPoint x="310" y="298"/>
                        </Array>
                    </mxGeometry>
                </mxCell>
                <mxCell id="O1z_SJtBllQJYyqGqHQy-6" style="edgeStyle=orthogonalEdgeStyle;rounded=1;html=1;entryX=1;entryY=0.5;entryDx=0;entryDy=0;startArrow=none;startFill=0;endArrow=none;endFill=0;strokeColor=default;exitX=0;exitY=0.5;exitDx=0;exitDy=0;" edge="1" parent="uL0VI-zcSZ-gOK0qdTFE-1" source="1qwwl78eV2HNCBXaWKCz-4" target="m_C47cZq4-kJ2EyNdQTC-3">
                    <mxGeometry relative="1" as="geometry"/>
                </mxCell>
                <mxCell id="rftScrHt4zFGCrcwfInd-0" value="Library" style="swimlane;fontStyle=0;childLayout=stackLayout;horizontal=1;startSize=26;fillColor=#d5e8d4;horizontalStack=0;resizeParent=1;resizeParentMax=0;resizeLast=0;collapsible=1;marginBottom=0;strokeColor=#82b366;" vertex="1" parent="uL0VI-zcSZ-gOK0qdTFE-1">
                    <mxGeometry x="80" y="72" width="150" height="78" as="geometry">
                        <mxRectangle x="60" y="200" width="60" height="26" as="alternateBounds"/>
                    </mxGeometry>
                </mxCell>
                <mxCell id="rftScrHt4zFGCrcwfInd-1" value="+ books_number: number" style="text;align=left;verticalAlign=top;spacingLeft=4;spacingRight=4;overflow=hidden;rotatable=0;points=[[0,0.5],[1,0.5]];portConstraint=eastwest;" vertex="1" parent="rftScrHt4zFGCrcwfInd-0">
                    <mxGeometry y="26" width="150" height="26" as="geometry"/>
                </mxCell>
                <mxCell id="rftScrHt4zFGCrcwfInd-3" value="+ fk_book_id: integer" style="text;align=left;verticalAlign=top;spacingLeft=4;spacingRight=4;overflow=hidden;rotatable=0;points=[[0,0.5],[1,0.5]];portConstraint=eastwest;fillColor=#e1d5e7;strokeColor=#9673a6;" vertex="1" parent="rftScrHt4zFGCrcwfInd-0">
                    <mxGeometry y="52" width="150" height="26" as="geometry"/>
                </mxCell>
                <mxCell id="rftScrHt4zFGCrcwfInd-6" style="edgeStyle=orthogonalEdgeStyle;rounded=1;html=1;startArrow=none;startFill=0;endArrow=none;endFill=0;strokeColor=default;" edge="1" parent="uL0VI-zcSZ-gOK0qdTFE-1" source="rftScrHt4zFGCrcwfInd-3">
                    <mxGeometry relative="1" as="geometry">
                        <mxPoint x="340" y="240" as="targetPoint"/>
                        <Array as="points">
                            <mxPoint x="310" y="137"/>
                            <mxPoint x="310" y="230"/>
                            <mxPoint x="340" y="230"/>
                        </Array>
                    </mxGeometry>
                </mxCell>
            </root>
        </mxGraphModel>
    </diagram>
    <diagram id="sTzrVm31xGdoxryEHJC0" name="Step4 -Refine">
        <mxGraphModel dx="963" dy="720" grid="1" gridSize="10" guides="1" tooltips="1" connect="1" arrows="1" fold="1" page="1" pageScale="1" pageWidth="827" pageHeight="1169" math="0" shadow="0">
            <root>
                <mxCell id="cdjB1sVy6WZKVk8GV6Fq-0"/>
                <mxCell id="cdjB1sVy6WZKVk8GV6Fq-1" parent="cdjB1sVy6WZKVk8GV6Fq-0"/>
                <mxCell id="X0He48jgzrQzbiLwBksr-0" value="Book" style="swimlane;fontStyle=0;childLayout=stackLayout;horizontal=1;startSize=26;fillColor=#dae8fc;horizontalStack=0;resizeParent=1;resizeParentMax=0;resizeLast=0;collapsible=1;marginBottom=0;strokeColor=#6c8ebf;" vertex="1" parent="cdjB1sVy6WZKVk8GV6Fq-1">
                    <mxGeometry x="339" y="200" width="150" height="130" as="geometry">
                        <mxRectangle x="60" y="200" width="60" height="26" as="alternateBounds"/>
                    </mxGeometry>
                </mxCell>
                <mxCell id="X0He48jgzrQzbiLwBksr-1" value="+ book_id: integer" style="text;strokeColor=none;fillColor=none;align=left;verticalAlign=top;spacingLeft=4;spacingRight=4;overflow=hidden;rotatable=0;points=[[0,0.5],[1,0.5]];portConstraint=eastwest;" vertex="1" parent="X0He48jgzrQzbiLwBksr-0">
                    <mxGeometry y="26" width="150" height="26" as="geometry"/>
                </mxCell>
                <mxCell id="X0He48jgzrQzbiLwBksr-2" value="+ title: string" style="text;strokeColor=none;fillColor=none;align=left;verticalAlign=top;spacingLeft=4;spacingRight=4;overflow=hidden;rotatable=0;points=[[0,0.5],[1,0.5]];portConstraint=eastwest;" vertex="1" parent="X0He48jgzrQzbiLwBksr-0">
                    <mxGeometry y="52" width="150" height="26" as="geometry"/>
                </mxCell>
                <mxCell id="X0He48jgzrQzbiLwBksr-3" value="+ fk_author_name: string" style="text;strokeColor=#9673a6;fillColor=#e1d5e7;align=left;verticalAlign=top;spacingLeft=4;spacingRight=4;overflow=hidden;rotatable=0;points=[[0,0.5],[1,0.5]];portConstraint=eastwest;" vertex="1" parent="X0He48jgzrQzbiLwBksr-0">
                    <mxGeometry y="78" width="150" height="26" as="geometry"/>
                </mxCell>
                <mxCell id="X0He48jgzrQzbiLwBksr-4" value="+ fk_language_id: string" style="text;strokeColor=#9673a6;fillColor=#e1d5e7;align=left;verticalAlign=top;spacingLeft=4;spacingRight=4;overflow=hidden;rotatable=0;points=[[0,0.5],[1,0.5]];portConstraint=eastwest;" vertex="1" parent="X0He48jgzrQzbiLwBksr-0">
                    <mxGeometry y="104" width="150" height="26" as="geometry"/>
                </mxCell>
                <mxCell id="X0He48jgzrQzbiLwBksr-5" value="Details" style="swimlane;fontStyle=0;childLayout=stackLayout;horizontal=1;startSize=26;fillColor=#dae8fc;horizontalStack=0;resizeParent=1;resizeParentMax=0;resizeLast=0;collapsible=1;marginBottom=0;strokeColor=#6c8ebf;" vertex="1" parent="cdjB1sVy6WZKVk8GV6Fq-1">
                    <mxGeometry x="600" y="320" width="150" height="208" as="geometry">
                        <mxRectangle x="60" y="200" width="60" height="26" as="alternateBounds"/>
                    </mxGeometry>
                </mxCell>
                <mxCell id="X0He48jgzrQzbiLwBksr-6" value="+ fk_book_id: integer" style="text;strokeColor=#9673a6;fillColor=#e1d5e7;align=left;verticalAlign=top;spacingLeft=4;spacingRight=4;overflow=hidden;rotatable=0;points=[[0,0.5],[1,0.5]];portConstraint=eastwest;" vertex="1" parent="X0He48jgzrQzbiLwBksr-5">
                    <mxGeometry y="26" width="150" height="26" as="geometry"/>
                </mxCell>
                <mxCell id="X0He48jgzrQzbiLwBksr-7" value="+ descritption: string" style="text;strokeColor=none;fillColor=none;align=left;verticalAlign=top;spacingLeft=4;spacingRight=4;overflow=hidden;rotatable=0;points=[[0,0.5],[1,0.5]];portConstraint=eastwest;" vertex="1" parent="X0He48jgzrQzbiLwBksr-5">
                    <mxGeometry y="52" width="150" height="26" as="geometry"/>
                </mxCell>
                <mxCell id="X0He48jgzrQzbiLwBksr-8" value="+ purchase_date: date" style="text;strokeColor=none;fillColor=none;align=left;verticalAlign=top;spacingLeft=4;spacingRight=4;overflow=hidden;rotatable=0;points=[[0,0.5],[1,0.5]];portConstraint=eastwest;" vertex="1" parent="X0He48jgzrQzbiLwBksr-5">
                    <mxGeometry y="78" width="150" height="26" as="geometry"/>
                </mxCell>
                <mxCell id="X0He48jgzrQzbiLwBksr-9" value="+ fk_genre: string" style="text;strokeColor=#9673a6;fillColor=#e1d5e7;align=left;verticalAlign=top;spacingLeft=4;spacingRight=4;overflow=hidden;rotatable=0;points=[[0,0.5],[1,0.5]];portConstraint=eastwest;" vertex="1" parent="X0He48jgzrQzbiLwBksr-5">
                    <mxGeometry y="104" width="150" height="26" as="geometry"/>
                </mxCell>
                <mxCell id="X0He48jgzrQzbiLwBksr-10" value="+ language_id: string" style="text;strokeColor=none;fillColor=none;align=left;verticalAlign=top;spacingLeft=4;spacingRight=4;overflow=hidden;rotatable=0;points=[[0,0.5],[1,0.5]];portConstraint=eastwest;" vertex="1" parent="X0He48jgzrQzbiLwBksr-5">
                    <mxGeometry y="130" width="150" height="26" as="geometry"/>
                </mxCell>
                <mxCell id="X0He48jgzrQzbiLwBksr-11" value="+ cover_type: string" style="text;strokeColor=none;fillColor=none;align=left;verticalAlign=top;spacingLeft=4;spacingRight=4;overflow=hidden;rotatable=0;points=[[0,0.5],[1,0.5]];portConstraint=eastwest;" vertex="1" parent="X0He48jgzrQzbiLwBksr-5">
                    <mxGeometry y="156" width="150" height="26" as="geometry"/>
                </mxCell>
                <mxCell id="X0He48jgzrQzbiLwBksr-12" value="+ page_number: string" style="text;strokeColor=none;fillColor=none;align=left;verticalAlign=top;spacingLeft=4;spacingRight=4;overflow=hidden;rotatable=0;points=[[0,0.5],[1,0.5]];portConstraint=eastwest;" vertex="1" parent="X0He48jgzrQzbiLwBksr-5">
                    <mxGeometry y="182" width="150" height="26" as="geometry"/>
                </mxCell>
                <mxCell id="X0He48jgzrQzbiLwBksr-13" value="Author" style="swimlane;fontStyle=0;childLayout=stackLayout;horizontal=1;startSize=26;fillColor=#dae8fc;horizontalStack=0;resizeParent=1;resizeParentMax=0;resizeLast=0;collapsible=1;marginBottom=0;strokeColor=#6c8ebf;" vertex="1" parent="cdjB1sVy6WZKVk8GV6Fq-1">
                    <mxGeometry x="90" y="360" width="150" height="78" as="geometry">
                        <mxRectangle x="60" y="200" width="60" height="26" as="alternateBounds"/>
                    </mxGeometry>
                </mxCell>
                <mxCell id="X0He48jgzrQzbiLwBksr-14" value="+ fk_book_id: integer" style="text;strokeColor=#9673a6;fillColor=#e1d5e7;align=left;verticalAlign=top;spacingLeft=4;spacingRight=4;overflow=hidden;rotatable=0;points=[[0,0.5],[1,0.5]];portConstraint=eastwest;" vertex="1" parent="X0He48jgzrQzbiLwBksr-13">
                    <mxGeometry y="26" width="150" height="26" as="geometry"/>
                </mxCell>
                <mxCell id="X0He48jgzrQzbiLwBksr-15" value="+ author_name: string" style="text;align=left;verticalAlign=top;spacingLeft=4;spacingRight=4;overflow=hidden;rotatable=0;points=[[0,0.5],[1,0.5]];portConstraint=eastwest;" vertex="1" parent="X0He48jgzrQzbiLwBksr-13">
                    <mxGeometry y="52" width="150" height="26" as="geometry"/>
                </mxCell>
                <mxCell id="X0He48jgzrQzbiLwBksr-16" value="My Information" style="swimlane;fontStyle=0;childLayout=stackLayout;horizontal=1;startSize=26;fillColor=#dae8fc;horizontalStack=0;resizeParent=1;resizeParentMax=0;resizeLast=0;collapsible=1;marginBottom=0;strokeColor=#6c8ebf;" vertex="1" parent="cdjB1sVy6WZKVk8GV6Fq-1">
                    <mxGeometry x="580" y="60" width="150" height="102" as="geometry">
                        <mxRectangle x="60" y="200" width="60" height="26" as="alternateBounds"/>
                    </mxGeometry>
                </mxCell>
                <mxCell id="X0He48jgzrQzbiLwBksr-17" value="+ fk_book_id: integer" style="text;strokeColor=#9673a6;fillColor=#e1d5e7;align=left;verticalAlign=top;spacingLeft=4;spacingRight=4;overflow=hidden;rotatable=0;points=[[0,0.5],[1,0.5]];portConstraint=eastwest;" vertex="1" parent="X0He48jgzrQzbiLwBksr-16">
                    <mxGeometry y="26" width="150" height="26" as="geometry"/>
                </mxCell>
                <mxCell id="X0He48jgzrQzbiLwBksr-18" value="+ red_status: boolean" style="text;strokeColor=none;fillColor=none;align=left;verticalAlign=top;spacingLeft=4;spacingRight=4;overflow=hidden;rotatable=0;points=[[0,0.5],[1,0.5]];portConstraint=eastwest;" vertex="1" parent="X0He48jgzrQzbiLwBksr-16">
                    <mxGeometry y="52" width="150" height="26" as="geometry"/>
                </mxCell>
                <mxCell id="X0He48jgzrQzbiLwBksr-19" value="+ personal_rating: number" style="text;align=left;verticalAlign=top;spacingLeft=4;spacingRight=4;overflow=hidden;rotatable=0;points=[[0,0.5],[1,0.5]];portConstraint=eastwest;" vertex="1" parent="X0He48jgzrQzbiLwBksr-16">
                    <mxGeometry y="78" width="150" height="24" as="geometry"/>
                </mxCell>
                <mxCell id="X0He48jgzrQzbiLwBksr-20" style="edgeStyle=orthogonalEdgeStyle;rounded=1;html=1;entryX=-0.027;entryY=-0.077;entryDx=0;entryDy=0;entryPerimeter=0;startArrow=none;startFill=0;endArrow=none;endFill=0;strokeColor=default;exitX=1;exitY=0.5;exitDx=0;exitDy=0;" edge="1" parent="cdjB1sVy6WZKVk8GV6Fq-1" source="X0He48jgzrQzbiLwBksr-1" target="X0He48jgzrQzbiLwBksr-18">
                    <mxGeometry relative="1" as="geometry">
                        <mxPoint x="490" y="320" as="sourcePoint"/>
                        <Array as="points">
                            <mxPoint x="489" y="230"/>
                            <mxPoint x="520" y="230"/>
                            <mxPoint x="520" y="110"/>
                        </Array>
                    </mxGeometry>
                </mxCell>
                <mxCell id="X0He48jgzrQzbiLwBksr-21" style="edgeStyle=orthogonalEdgeStyle;rounded=1;html=1;entryX=0;entryY=0.5;entryDx=0;entryDy=0;startArrow=none;startFill=0;endArrow=none;endFill=0;strokeColor=default;exitX=1;exitY=0.5;exitDx=0;exitDy=0;" edge="1" parent="cdjB1sVy6WZKVk8GV6Fq-1" source="X0He48jgzrQzbiLwBksr-1" target="X0He48jgzrQzbiLwBksr-6">
                    <mxGeometry relative="1" as="geometry">
                        <Array as="points">
                            <mxPoint x="489" y="240"/>
                            <mxPoint x="560" y="240"/>
                            <mxPoint x="560" y="359"/>
                        </Array>
                    </mxGeometry>
                </mxCell>
                <mxCell id="X0He48jgzrQzbiLwBksr-22" style="edgeStyle=orthogonalEdgeStyle;rounded=1;html=1;startArrow=none;startFill=0;endArrow=none;endFill=0;strokeColor=default;entryX=1;entryY=0.5;entryDx=0;entryDy=0;exitX=0;exitY=0.5;exitDx=0;exitDy=0;" edge="1" parent="cdjB1sVy6WZKVk8GV6Fq-1" source="X0He48jgzrQzbiLwBksr-1" target="X0He48jgzrQzbiLwBksr-13">
                    <mxGeometry relative="1" as="geometry">
                        <mxPoint x="310" y="240" as="targetPoint"/>
                        <Array as="points">
                            <mxPoint x="280" y="239"/>
                            <mxPoint x="280" y="399"/>
                        </Array>
                    </mxGeometry>
                </mxCell>
                <mxCell id="X0He48jgzrQzbiLwBksr-23" style="edgeStyle=orthogonalEdgeStyle;rounded=1;html=1;entryX=0;entryY=0.75;entryDx=0;entryDy=0;startArrow=none;startFill=0;endArrow=none;endFill=0;strokeColor=default;exitX=1;exitY=0.5;exitDx=0;exitDy=0;" edge="1" parent="cdjB1sVy6WZKVk8GV6Fq-1" source="X0He48jgzrQzbiLwBksr-15" target="X0He48jgzrQzbiLwBksr-0">
                    <mxGeometry relative="1" as="geometry">
                        <Array as="points">
                            <mxPoint x="310" y="425"/>
                            <mxPoint x="310" y="298"/>
                        </Array>
                    </mxGeometry>
                </mxCell>
                <mxCell id="X0He48jgzrQzbiLwBksr-24" style="edgeStyle=orthogonalEdgeStyle;rounded=1;html=1;entryX=1;entryY=0.5;entryDx=0;entryDy=0;startArrow=none;startFill=0;endArrow=none;endFill=0;strokeColor=default;exitX=0;exitY=0.5;exitDx=0;exitDy=0;" edge="1" parent="cdjB1sVy6WZKVk8GV6Fq-1" source="X0He48jgzrQzbiLwBksr-10" target="X0He48jgzrQzbiLwBksr-4">
                    <mxGeometry relative="1" as="geometry"/>
                </mxCell>
                <mxCell id="X0He48jgzrQzbiLwBksr-25" value="Genre" style="swimlane;fontStyle=0;childLayout=stackLayout;horizontal=1;startSize=26;fillColor=#dae8fc;horizontalStack=0;resizeParent=1;resizeParentMax=0;resizeLast=0;collapsible=1;marginBottom=0;strokeColor=#6c8ebf;" vertex="1" parent="cdjB1sVy6WZKVk8GV6Fq-1">
                    <mxGeometry x="339" y="510" width="150" height="102" as="geometry">
                        <mxRectangle x="60" y="200" width="60" height="26" as="alternateBounds"/>
                    </mxGeometry>
                </mxCell>
                <mxCell id="X0He48jgzrQzbiLwBksr-26" value="+ fk_book_id: integer" style="text;align=left;verticalAlign=top;spacingLeft=4;spacingRight=4;overflow=hidden;rotatable=0;points=[[0,0.5],[1,0.5]];portConstraint=eastwest;fillColor=#e1d5e7;strokeColor=#9673a6;" vertex="1" parent="X0He48jgzrQzbiLwBksr-25">
                    <mxGeometry y="26" width="150" height="24" as="geometry"/>
                </mxCell>
                <mxCell id="X0He48jgzrQzbiLwBksr-27" value="+ genre: string" style="text;align=left;verticalAlign=top;spacingLeft=4;spacingRight=4;overflow=hidden;rotatable=0;points=[[0,0.5],[1,0.5]];portConstraint=eastwest;" vertex="1" parent="X0He48jgzrQzbiLwBksr-25">
                    <mxGeometry y="50" width="150" height="26" as="geometry"/>
                </mxCell>
                <mxCell id="X0He48jgzrQzbiLwBksr-30" value="+ topic: string" style="text;align=left;verticalAlign=top;spacingLeft=4;spacingRight=4;overflow=hidden;rotatable=0;points=[[0,0.5],[1,0.5]];portConstraint=eastwest;" vertex="1" parent="X0He48jgzrQzbiLwBksr-25">
                    <mxGeometry y="76" width="150" height="26" as="geometry"/>
                </mxCell>
                <mxCell id="X0He48jgzrQzbiLwBksr-36" style="edgeStyle=orthogonalEdgeStyle;rounded=1;html=1;entryX=1;entryY=0.5;entryDx=0;entryDy=0;startArrow=none;startFill=0;endArrow=none;endFill=0;strokeColor=default;" edge="1" parent="cdjB1sVy6WZKVk8GV6Fq-1" source="X0He48jgzrQzbiLwBksr-9" target="X0He48jgzrQzbiLwBksr-26">
                    <mxGeometry relative="1" as="geometry">
                        <Array as="points">
                            <mxPoint x="780" y="437"/>
                            <mxPoint x="780" y="550"/>
                            <mxPoint x="489" y="550"/>
                        </Array>
                    </mxGeometry>
                </mxCell>
                <mxCell id="QOEGfvKRbZMf9Or8LdoS-0" value="Library" style="swimlane;fontStyle=0;childLayout=stackLayout;horizontal=1;startSize=26;fillColor=#d5e8d4;horizontalStack=0;resizeParent=1;resizeParentMax=0;resizeLast=0;collapsible=1;marginBottom=0;strokeColor=#82b366;" vertex="1" parent="cdjB1sVy6WZKVk8GV6Fq-1">
                    <mxGeometry x="80" y="72" width="150" height="78" as="geometry">
                        <mxRectangle x="60" y="200" width="60" height="26" as="alternateBounds"/>
                    </mxGeometry>
                </mxCell>
                <mxCell id="QOEGfvKRbZMf9Or8LdoS-1" value="+ books_number: number" style="text;align=left;verticalAlign=top;spacingLeft=4;spacingRight=4;overflow=hidden;rotatable=0;points=[[0,0.5],[1,0.5]];portConstraint=eastwest;" vertex="1" parent="QOEGfvKRbZMf9Or8LdoS-0">
                    <mxGeometry y="26" width="150" height="26" as="geometry"/>
                </mxCell>
                <mxCell id="QOEGfvKRbZMf9Or8LdoS-2" value="+ fk_book_id: integer" style="text;align=left;verticalAlign=top;spacingLeft=4;spacingRight=4;overflow=hidden;rotatable=0;points=[[0,0.5],[1,0.5]];portConstraint=eastwest;fillColor=#e1d5e7;strokeColor=#9673a6;" vertex="1" parent="QOEGfvKRbZMf9Or8LdoS-0">
                    <mxGeometry y="52" width="150" height="26" as="geometry"/>
                </mxCell>
                <mxCell id="QOEGfvKRbZMf9Or8LdoS-3" style="edgeStyle=orthogonalEdgeStyle;rounded=1;html=1;entryX=0;entryY=0.5;entryDx=0;entryDy=0;startArrow=none;startFill=0;endArrow=none;endFill=0;strokeColor=default;" edge="1" parent="cdjB1sVy6WZKVk8GV6Fq-1" source="QOEGfvKRbZMf9Or8LdoS-2" target="X0He48jgzrQzbiLwBksr-1">
                    <mxGeometry relative="1" as="geometry">
                        <Array as="points">
                            <mxPoint x="285" y="137"/>
                            <mxPoint x="285" y="220"/>
                            <mxPoint x="339" y="220"/>
                        </Array>
                    </mxGeometry>
                </mxCell>
            </root>
        </mxGraphModel>
    </diagram>
</mxfile>